
<svg width="90px" height="90px" viewBox="858 823 90 90" version="1.1" xmlns="http://www.w3.org/2000/svg" xmlns:xlink="http://www.w3.org/1999/xlink">
    <!-- Generator: Sketch 42 (36781) - http://www.bohemiancoding.com/sketch -->
    <desc>Created with Sketch.</desc>
    <defs></defs>
    <g id="quote" stroke="none" stroke-width="1" fill="none" fill-rule="evenodd" transform="translate(858.000000, 823.000000)">
        <circle id="Oval" fill="#FFFFFF" cx="45" cy="45" r="45"></circle>
        <path d="M58.2065371,45.0700062 L58.2065371,57.9988866 L45.8885159,57.9988866 L45.8885159,48.7509691 C45.8885159,44.9779835 45.9977032,43.0281381 46.6257951,40.8814433 C47.2538869,38.7347485 48.3611307,36.6143856 50.0710247,34.8969072 C51.7809187,33.1794289 53.7446996,31.9513464 57.0939929,31 L58.9491166,35.314433 C56.494523,36.173534 54.9987633,37.4172041 53.9323322,38.9506371 C52.8655477,40.484534 52.3030035,42.5243237 52.2446996,45.0700062 L58.2065371,45.0700062 Z M41.345636,44.0700062 L41.345583,44.0700062 L41.345583,56.9988866 L29.0275618,56.9988866 L29.0275618,47.7509691 C29.0275618,44.0088804 29.1934629,41.4872474 29.8215548,39.3247423 C30.4496466,37.1622371 31.7047173,35.3360351 33.3992933,33.6185567 C35.0938693,31.9010784 37.7548057,30.7595629 40.1572438,30 L42.0123675,34.314433 C39.5575088,35.173534 38.0441519,36.2596577 36.9770318,37.7938144 C35.9099117,39.3279711 35.3180212,41.6609381 35.3838516,44.0700062 L41.345636,44.0700062 Z" id="Combined-Shape" fill="#333333"></path>
    </g>
</svg>
